<?xml version="1.0" encoding="UTF-8" standalone="no"?>
<!-- Created with Inkscape (http://www.inkscape.org/) -->

<svg
   width="1080"
   height="1080"
   viewBox="0 0 1080 1080"
   version="1.1"
   id="svg1"
   xml:space="preserve"
   inkscape:version="1.4.3 (0d15f75042, 2025-12-25)"
   sodipodi:docname="audiom.svg"
   xmlns:inkscape="http://www.inkscape.org/namespaces/inkscape"
   xmlns:sodipodi="http://sodipodi.sourceforge.net/DTD/sodipodi-0.dtd"
   xmlns="http://www.w3.org/2000/svg"
   xmlns:svg="http://www.w3.org/2000/svg"><sodipodi:namedview
     id="namedview1"
     pagecolor="#ffffff"
     bordercolor="#000000"
     borderopacity="0.25"
     inkscape:showpageshadow="2"
     inkscape:pageopacity="0.0"
     inkscape:pagecheckerboard="0"
     inkscape:deskcolor="#d1d1d1"
     inkscape:document-units="px"
     inkscape:zoom="0.5237828"
     inkscape:cx="797.08612"
     inkscape:cy="572.75649"
     inkscape:window-width="1900"
     inkscape:window-height="1021"
     inkscape:window-x="0"
     inkscape:window-y="0"
     inkscape:window-maximized="1"
     inkscape:current-layer="layer1" /><defs
     id="defs1"><linearGradient
       id="swatch2"
       inkscape:swatch="solid"><stop
         style="stop-color:#000000;stop-opacity:1;"
         offset="0"
         id="stop2" /></linearGradient></defs><g
     inkscape:label="Layer 1"
     inkscape:groupmode="layer"
     id="layer1"><path
       style="fill:#000000"
       id="path1" /><path
       style="fill:#ffffff;stroke-width:1.43611"
       d="m 962.75692,613.26819 c -10.31589,-4.68171 -24.66882,-21.44088 -27.69467,-32.3376 -3.31584,-11.94103 -3.3364,-69.51311 -0.029,-81.42271 3.22686,-11.6199 14.78778,-24.85125 27.28411,-31.2264 7.72055,-3.93873 13.0903,-4.76437 26.1769,-4.02491 20.06144,1.13356 33.86204,9.57029 42.53854,26.00499 5.2306,9.90752 5.6388,13.52039 5.6388,49.90503 0,36.38465 -0.4082,39.99752 -5.6388,49.90504 -3.1013,5.87441 -10.2585,13.93465 -15.905,17.91166 -8.7273,6.14701 -12.877,7.33235 -27.68337,7.90767 -10.90496,0.42372 -20.13547,-0.55691 -24.68744,-2.62277 z"
       id="path15" /><path
       style="fill:#ffffff;stroke-width:1.43611"
       d="M 73.357672,612.2448 C 48.241346,599.04554 42.097234,582.71677 43.520574,532.94899 c 1.085741,-37.96327 2.916433,-43.92567 17.388288,-56.63212 11.210469,-9.84294 23.31348,-13.49424 40.587638,-12.24474 17.82953,1.28967 31.96125,10.47237 40.27288,26.16903 5.53768,10.45805 5.74415,12.61229 5.03291,52.51035 -0.74168,41.60491 -0.74168,41.60491 -8.04439,52.10377 -9.92716,14.27196 -24.54569,21.43294 -43.496991,21.30728 -8.452468,-0.056 -17.703671,-1.71078 -21.903237,-3.91776 z"
       id="path13" /><path
       style="fill:#ffffff;stroke-width:1.43611"
       d="m 221.59203,612.2448 c -25.11632,-13.19926 -31.26043,-29.52803 -29.83709,-79.29581 1.08574,-37.96327 2.91643,-43.92567 17.38828,-56.63212 11.21047,-9.84294 23.31348,-13.49424 40.58764,-12.24474 17.82953,1.28967 31.96125,10.47237 40.27288,26.16903 5.53768,10.45805 5.74415,12.61229 5.03291,52.51035 -0.74168,41.60491 -0.74168,41.60491 -8.04439,52.10377 -9.92716,14.27196 -24.54569,21.43294 -43.49699,21.30728 -8.45247,-0.056 -17.70367,-1.71078 -21.90324,-3.91776 z"
       id="path13-3" /><path
       style="fill:#ffffff;stroke-width:1.43611"
       d="m 369.82639,612.2448 c -25.11632,-13.19926 -31.26044,-29.52803 -29.8371,-79.29581 1.08575,-37.96327 2.91644,-43.92567 17.38829,-56.63212 11.21047,-9.84294 23.31348,-13.49424 40.58764,-12.24474 17.82953,1.28967 31.96125,10.47237 40.27288,26.16903 5.53768,10.45805 5.74415,12.61229 5.03291,52.51035 -0.74168,41.60491 -0.74168,41.60491 -8.04439,52.10377 -9.92716,14.27196 -24.54569,21.43294 -43.49699,21.30728 -8.45247,-0.056 -17.70367,-1.71078 -21.90324,-3.91776 z"
       id="path13-1" /><path
       style="fill:#ffffff;stroke-width:1.43611"
       d="m 518.06075,612.2448 c -25.11633,-13.19926 -31.26044,-29.52803 -29.8371,-79.29581 1.08574,-37.96327 2.91643,-43.92567 17.38829,-56.63212 11.21047,-9.84294 23.31348,-13.49424 40.58764,-12.24474 17.82953,1.28967 31.96125,10.47237 40.27288,26.16903 5.53768,10.45805 5.74415,12.61229 5.03291,52.51035 -0.74168,41.60491 -0.74168,41.60491 -8.04439,52.10377 -9.92716,14.27196 -24.54569,21.43294 -43.497,21.30728 -8.45246,-0.056 -17.70367,-1.71078 -21.90323,-3.91776 z"
       id="path13-36" /><path
       style="fill:#ffffff;stroke-width:1.43611"
       d="m 666.29511,612.2448 c -25.11633,-13.19926 -31.26044,-29.52803 -29.8371,-79.29581 1.08574,-37.96327 2.91644,-43.92567 17.38829,-56.63212 11.21047,-9.84294 23.31348,-13.49424 40.58764,-12.24474 17.82953,1.28967 31.96125,10.47237 40.27288,26.16903 5.53768,10.45805 5.74415,12.61229 5.03291,52.51035 -0.74168,41.60491 -0.74168,41.60491 -8.04439,52.10377 -9.92716,14.27196 -24.54569,21.43294 -43.49699,21.30728 -8.45247,-0.056 -17.70367,-1.71078 -21.90324,-3.91776 z"
       id="path13-18" /><path
       style="fill:#ffffff;stroke-width:1.43611"
       d="m 814.52947,612.2448 c -25.11633,-13.19926 -31.26044,-29.52803 -29.8371,-79.29581 1.08574,-37.96327 2.91644,-43.92567 17.38829,-56.63212 11.21047,-9.84294 23.31348,-13.49424 40.58764,-12.24474 17.82953,1.28967 31.96125,10.47237 40.27288,26.16903 5.53768,10.45805 5.74415,12.61229 5.03291,52.51035 -0.74168,41.60491 -0.74168,41.60491 -8.04439,52.10377 -9.92716,14.27196 -24.54569,21.43294 -43.49699,21.30728 -8.45247,-0.056 -17.70367,-1.71078 -21.90324,-3.91776 z"
       id="path13-2" /></g></svg>
