<?xml version="1.0" encoding="UTF-8" standalone="no"?>
<!-- Created with Inkscape (http://www.inkscape.org/) -->

<svg
   width="1080"
   height="1080"
   viewBox="0 0 1080 1080"
   version="1.1"
   id="svg1"
   xml:space="preserve"
   inkscape:version="1.4.3 (0d15f75042, 2025-12-25)"
   sodipodi:docname="audio.svg"
   xmlns:inkscape="http://www.inkscape.org/namespaces/inkscape"
   xmlns:sodipodi="http://sodipodi.sourceforge.net/DTD/sodipodi-0.dtd"
   xmlns="http://www.w3.org/2000/svg"
   xmlns:svg="http://www.w3.org/2000/svg"><sodipodi:namedview
     id="namedview1"
     pagecolor="#ffffff"
     bordercolor="#000000"
     borderopacity="0.25"
     inkscape:showpageshadow="2"
     inkscape:pageopacity="0.0"
     inkscape:pagecheckerboard="0"
     inkscape:deskcolor="#d1d1d1"
     inkscape:document-units="px"
     inkscape:zoom="0.5237828"
     inkscape:cx="797.08612"
     inkscape:cy="572.75649"
     inkscape:window-width="1900"
     inkscape:window-height="1021"
     inkscape:window-x="0"
     inkscape:window-y="0"
     inkscape:window-maximized="1"
     inkscape:current-layer="layer1" /><defs
     id="defs1"><linearGradient
       id="swatch2"
       inkscape:swatch="solid"><stop
         style="stop-color:#000000;stop-opacity:1;"
         offset="0"
         id="stop2" /></linearGradient></defs><g
     inkscape:label="Layer 1"
     inkscape:groupmode="layer"
     id="layer1"><path
       style="fill:#000000"
       id="path1" /><g
       id="g22"
       transform="translate(4.9707098,-5.8233523)"
       style="fill:#ffffff"><path
         style="fill:#ffffff;stroke-width:1.43611"
         d="m 957.78621,643.27824 c -10.31589,-4.68171 -24.66882,-21.44088 -27.69467,-32.3376 -3.31584,-11.94103 -3.3364,-69.51311 -0.029,-81.42271 3.22686,-11.6199 14.78778,-24.85125 27.28411,-31.2264 7.72055,-3.93873 13.0903,-4.76437 26.1769,-4.02491 20.06145,1.13356 33.86205,9.57029 42.53855,26.00499 5.2306,9.90752 5.6388,13.52039 5.6388,49.90503 0,36.38465 -0.4082,39.99752 -5.6388,49.90504 -3.1013,5.87441 -10.2585,13.93465 -15.905,17.91166 -8.7273,6.14701 -12.87702,7.33235 -27.68338,7.90767 -10.90496,0.42372 -20.13547,-0.55691 -24.68744,-2.62277 z"
         id="path15" /><path
         style="fill:#ffffff;stroke-width:1.43611"
         d="M 68.386962,642.49994 C 43.270636,629.30068 37.126524,612.97191 38.549864,563.20413 c 1.085741,-37.96327 2.916433,-43.92567 17.388288,-56.63212 11.210469,-9.84294 23.31348,-13.49424 40.58764,-12.24474 17.829528,1.28967 31.961248,10.47237 40.272878,26.16903 5.53768,10.45805 5.74415,12.61229 5.03291,52.51035 -0.74168,41.60491 -0.74168,41.60491 -8.04439,52.10377 -9.92716,14.27196 -24.54569,21.43294 -43.496991,21.30728 -8.452468,-0.056 -17.703671,-1.71078 -21.903237,-3.91776 z"
         id="path13" /><path
         style="fill:#ffffff;stroke-width:1.43611"
         d="m 818.64705,695.64436 c -6.94453,-1.30851 -21.54796,-10.26575 -27.37932,-16.79352 -11.0346,-12.35245 -11.60662,-17.76051 -11.55049,-109.20221 0.0485,-79.11178 0.44611,-87.58055 4.53388,-96.58068 6.20662,-13.66525 20.19392,-24.54135 35.70206,-27.76081 22.49778,-4.67053 42.36589,3.04654 55.33557,21.49318 7.37109,10.48381 7.37109,10.48381 8.12016,98.1284 0.51297,60.01965 -0.1123,90.5815 -1.98375,96.96239 -1.50771,5.14071 -7.27556,13.85389 -12.86623,19.43632 -13.66901,13.64891 -29.44333,18.17368 -49.91188,14.31693 z"
         id="path11" /><path
         style="fill:#ffffff;stroke-width:1.43611"
         d="m 518.51236,694.17182 c -11.71417,-4.24838 -24.1888,-15.12162 -29.66592,-25.85763 -4.63462,-9.08463 -4.84103,-14.31714 -4.84103,-122.7219 0,-110.05788 0.14261,-113.52727 5.08651,-123.73999 3.15561,-6.51863 9.36533,-13.47877 16.35815,-18.33501 10.31003,-7.15989 12.85618,-7.82769 29.84449,-7.82769 16.69899,0 19.63304,0.73503 29.08118,7.28528 6.88287,4.77182 12.80762,11.8196 17.17277,20.42787 6.66444,13.14258 6.66444,13.14258 6.64076,122.36828 -0.0237,109.2257 -0.0237,109.2257 -5.71509,121.34286 -6.69279,14.24912 -11.14761,18.60902 -25.80942,25.25955 -12.07014,5.47497 -26.18087,6.14011 -38.1524,1.79838 z"
         id="path9" /><path
         style="fill:#ffffff;stroke-width:1.43611"
         d="m 218.6397,692.88548 c -11.36345,-5.17531 -26.94359,-21.56412 -29.62553,-31.16321 -2.43452,-8.71358 -2.45849,-174.29524 -0.0264,-182.98571 2.32463,-8.30675 14.16383,-21.94306 24.7103,-28.46114 24.53812,-15.16539 63.80462,-1.78316 73.96758,25.20855 1.77687,4.71917 2.62134,36.71868 2.52439,95.65576 -0.13772,83.69928 -0.41423,89.11905 -5.03444,98.66314 -11.03827,22.802 -42.87416,33.84983 -66.51582,23.08261 z"
         id="path7" /><path
         style="fill:#ffffff;stroke-width:1.43611"
         d="m 671.43417,794.56897 c -12.57011,-3.1957 -23.33528,-10.73002 -31.0839,-21.75496 -7.30384,-10.39211 -7.30384,-10.39211 -7.30384,-202.63737 0,-192.24526 0,-192.24526 7.37109,-202.73303 10.68107,-15.19732 22.90415,-21.3455 42.53394,-21.39449 21.98241,-0.0549 34.66643,6.74625 45.21464,24.24381 7.87615,13.0651 7.87615,13.0651 7.81954,199.77651 -0.0566,186.7114 -0.0566,186.7114 -6.66443,198.74532 -11.05199,20.12747 -36.13105,31.28526 -57.88704,25.75421 z"
         id="path5" /><path
         style="fill:#ffffff;stroke-width:1.43611"
         d="m 366.469,840.63192 c -11.37297,-5.27684 -24.06635,-17.97123 -27.75697,-27.75915 -1.80259,-4.78064 -2.61639,-87.74998 -2.63467,-268.61068 -0.0264,-261.69341 -0.0264,-261.69341 5.48888,-271.6697 16.25795,-29.40793 60.18131,-35.05176 83.72741,-10.75835 15.80159,16.3031 15.09,2.93299 15.09,283.52596 0,194.33628 -0.7044,256.83774 -2.98043,264.45517 -3.82772,12.81062 -20.27698,29.40282 -32.51971,32.80229 -13.72705,3.8116 -27.44877,3.10238 -38.41451,-1.98554 z"
         id="path3" /></g></g></svg>
