<?xml version="1.0" encoding="UTF-8" standalone="no"?>
<!-- Created with Inkscape (http://www.inkscape.org/) -->

<svg
   width="1080"
   height="1080"
   viewBox="0 0 1080 1080"
   version="1.1"
   id="svg1"
   xml:space="preserve"
   inkscape:version="1.4.3 (0d15f75042, 2025-12-25)"
   sodipodi:docname="audiol.svg"
   xmlns:inkscape="http://www.inkscape.org/namespaces/inkscape"
   xmlns:sodipodi="http://sodipodi.sourceforge.net/DTD/sodipodi-0.dtd"
   xmlns="http://www.w3.org/2000/svg"
   xmlns:svg="http://www.w3.org/2000/svg"><sodipodi:namedview
     id="namedview1"
     pagecolor="#ffffff"
     bordercolor="#000000"
     borderopacity="0.25"
     inkscape:showpageshadow="2"
     inkscape:pageopacity="0.0"
     inkscape:pagecheckerboard="0"
     inkscape:deskcolor="#d1d1d1"
     inkscape:document-units="px"
     inkscape:zoom="0.5237828"
     inkscape:cx="438.15872"
     inkscape:cy="574.66568"
     inkscape:window-width="1920"
     inkscape:window-height="1011"
     inkscape:window-x="0"
     inkscape:window-y="0"
     inkscape:window-maximized="1"
     inkscape:current-layer="layer1" /><defs
     id="defs1"><linearGradient
       id="swatch2"
       inkscape:swatch="solid"><stop
         style="stop-color:#000000;stop-opacity:1;"
         offset="0"
         id="stop2" /></linearGradient></defs><g
     inkscape:label="Layer 1"
     inkscape:groupmode="layer"
     id="layer1"><path
       style="fill:#ffffff;stroke-width:0.958796"
       d="m 682.87157,760.86988 c -46.17591,-20.69436 -27.56208,-72.726 -2.16008,-102.10272 45.3223,-84.46297 34.29671,-193.84768 -25.65663,-268.42218 -33.52256,-35.85 21.32982,-96.21662 60.53124,-67.70922 65.97989,67.42414 93.55143,166.93052 83.14064,259.77675 -5.63886,62.53764 -31.35293,123.55338 -71.12561,171.87484 -12.12338,10.26947 -30.1779,13.21716 -44.72956,6.58253 z"
       id="path3" /><path
       style="fill:#ffffff;stroke-width:0.958796"
       d="M 484.86667,871.30255 C 432.46394,836.31112 386.52286,791.78205 336.93243,752.70703 304.23844,725.60519 271.54445,698.50334 238.85046,671.4015 194.19141,670.78323 149.38707,672.84292 104.84727,669.66935 56.782506,654.15158 79.326252,594.51834 73.67491,557.0052 78.493999,514.37278 60.358346,462.96516 89.217673,427.81666 c 29.000767,-16.77382 65.127677,-6.48 97.381307,-9.58846 18.02524,-1.2169 37.60109,1.81745 54.70364,-1.92919 78.50504,-64.78202 156.44078,-130.26696 235.6545,-194.18026 50.82947,-23.42861 71.96249,37.27509 62.53122,77.51229 0.16861,179.7412 1.09687,359.53145 -1.77269,539.24555 -0.0424,23.93141 -31.90076,40.10791 -52.84898,32.42596 z"
       id="path2" /></g></svg>
