<?xml version="1.0" encoding="UTF-8" standalone="no"?>
<!-- Created with Inkscape (http://www.inkscape.org/) -->

<svg
   width="1080"
   height="1080"
   viewBox="0 0 1080 1080"
   version="1.1"
   id="svg1"
   xml:space="preserve"
   inkscape:version="1.4.3 (0d15f75042, 2025-12-25)"
   sodipodi:docname="battery100c.svg"
   xmlns:inkscape="http://www.inkscape.org/namespaces/inkscape"
   xmlns:sodipodi="http://sodipodi.sourceforge.net/DTD/sodipodi-0.dtd"
   xmlns="http://www.w3.org/2000/svg"
   xmlns:svg="http://www.w3.org/2000/svg"><sodipodi:namedview
     id="namedview1"
     pagecolor="#ffffff"
     bordercolor="#000000"
     borderopacity="0.25"
     inkscape:showpageshadow="2"
     inkscape:pageopacity="0.0"
     inkscape:pagecheckerboard="0"
     inkscape:deskcolor="#d1d1d1"
     inkscape:document-units="px"
     inkscape:zoom="0.5237828"
     inkscape:cx="435.29494"
     inkscape:cy="574.66568"
     inkscape:window-width="1900"
     inkscape:window-height="1021"
     inkscape:window-x="0"
     inkscape:window-y="0"
     inkscape:window-maximized="1"
     inkscape:current-layer="layer1" /><defs
     id="defs1"><linearGradient
       id="swatch2"
       inkscape:swatch="solid"><stop
         style="stop-color:#000000;stop-opacity:1;"
         offset="0"
         id="stop2" /></linearGradient></defs><g
     inkscape:label="Layer 1"
     inkscape:groupmode="layer"
     id="layer1"><path
       d="m 969.76953,437.70898 c -8.79136,0 -10.834,0.55322 -16.31836,4.41602 -3.44794,2.42849 -7.80985,7.33466 -9.69336,10.90234 l -3.42578,6.48633 v 78.30469 78.30469 l 3.86914,5.70117 c 4.61978,6.80762 6.7746,8.66344 14.5293,12.51172 12.12485,6.01696 27.66301,1.03664 35.99023,-11.53516 l 4.48438,-6.77148 v -78.25782 -78.25781 l -3.42383,-6.48633 c -1.88351,-3.56768 -6.24737,-8.47385 -9.69531,-10.90234 -5.48436,-3.8628 -7.52505,-4.41602 -16.31641,-4.41602 z"
       style="fill:#ffffff"
       id="path13" /><path
       d="m 329.55273,776.48047 c 0.01,-0.0349 0.0194,-0.0687 0.0293,-0.10352 4.80577,-16.85163 9.34245,-28.92339 9.29297,-28.55664 a 43.915729,43.915729 0 0 1 1.4707,-6.78515 c 2.49767,-8.29868 4.99925,-16.56915 7.50391,-24.82032 -113.94207,-0.0807 -145.16892,-0.55676 -148.88867,-1.72461 -15.02914,-4.71868 -26.40798,-14.84195 -33.95508,-30.20898 l -3.99805,-8.13867 V 537.05664 397.9707 l 3.87891,-8.27148 c 7.70361,-16.42947 21.84938,-27.84963 38.99609,-31.48242 7.69234,-1.62974 42.73391,-2.0558 224.71094,-2.14063 18.4462,-19.45056 36.97003,-38.85687 55.60156,-58.18945 H 194.85937 l -10.9746,3.44726 c -10.90049,3.42298 -26.36294,10.69069 -34.46094,16.19727 -14.87802,10.11694 -34.50583,34.87802 -40.63867,51.26953 -8.53579,22.81386 -8.02627,13.23187 -8.54102,160.89649 -0.334069,95.83293 0.0192,139.58766 1.19141,147.77734 6.80451,47.54148 44.65809,87.97972 91.0664,97.28516 5.48414,1.09963 35.66954,1.58939 137.05078,1.7207 z"
       style="fill:#ffffff"
       id="path19" /><path
       d="m 656.04492,297.88672 c -1.4395,4.79366 -3.11093,9.28429 -4.91992,13.60937 -4.39436,14.95828 -8.84619,29.84311 -13.32813,44.67383 101.2097,0.19903 160.88816,0.65563 164.83985,1.30274 12.0557,1.97417 23.0534,7.917 31.83398,17.20117 8.69663,9.1954 12.3754,16.78401 14.50782,29.92773 1.92066,11.83853 2.11174,251.22319 0.21093,264.35938 -2.63218,18.19062 -14.66078,34.51723 -31.85742,43.24023 l -7.25391,3.67969 -256.07226,0.23633 c -18.99008,20.16899 -38.05394,40.29982 -57.22461,60.35937 4.05105,-0.003 8.15453,-0.006 12.31055,-0.01 l 306.87304,-0.24024 10.30274,-3.45898 c 39.0685,-13.11488 65.86908,-39.918 78.95703,-78.96289 l 3.45312,-10.30274 0.44141,-140.55859 c 0.3027,-96.45568 -0.0608,-143.55995 -1.16016,-150.125 -3.73441,-22.30073 -15.4415,-44.53493 -32.46679,-61.66602 -13.08392,-13.16523 -27.38674,-22.03361 -46.06446,-28.56054 l -13.46289,-4.70508 z"
       style="fill:#ffffff"
       id="path16" /><path
       d="m 386.93359,400.19727 -157.58398,-0.0195 -6.94141,3.54883 c -3.8182,1.95146 -9.06763,5.76259 -11.66406,8.46875 -9.50652,9.90827 -9.25977,6.57815 -9.25977,125.83008 0,88.33736 0.36888,108.92289 2.02344,112.88281 3.18681,7.62712 11.27816,15.82773 19.30664,19.56641 l 7.36914,3.43164 h 130.57422 c 4.38427,-14.31929 8.77166,-28.6157 13.15821,-42.92969 -23.32359,0.24477 -48.24836,0.17644 -74.8711,-3.16992 a 43.915729,43.915729 0 0 1 -18.95508,-7.08398 c -14.76441,-9.88599 -29.05803,-32.25233 -28.20312,-52.56836 0.85491,-20.31603 9.64899,-31.97197 16.26562,-40.48633 13.23326,-17.02872 27.35982,-30.23947 24.56641,-26.18945 a 43.915729,43.915729 0 0 1 4.07812,-5.06641 c 29.9785,-32.04508 59.9821,-64.15965 90.13672,-96.21484 z"
       style="fill:#00aa00"
       id="path21" /><path
       d="m 624.36914,400.24805 c -3.76375,12.28668 -7.53043,24.54812 -11.2832,36.79492 23.01904,-0.14918 47.27263,-0.10973 72.87109,2.31055 a 43.915729,43.915729 0 0 1 18.52344,6.10156 c 14.31812,8.62526 29.62877,27.98317 30.64453,48.3457 1.01576,20.36253 -7.3213,33.18616 -13.54688,41.90625 -11.91613,16.69079 -24.80586,27.8025 -25.04492,27.64649 -0.006,-0.0101 0.009,-0.0417 0.0469,-0.0898 a 43.915729,43.915729 0 0 1 -2.45508,2.87305 c -33.45907,35.8544 -66.90547,71.83808 -100.51563,107.76953 h 185.56055 l 7.35742,-3.45313 c 9.1305,-4.28513 14.96636,-10.00244 18.98243,-18.5957 3.05834,-6.54402 3.0957,-7.92438 3.0957,-115.53711 V 427.40625 l -3.19336,-5.96484 c -4.20567,-7.85573 -11.60202,-15.08758 -18.88477,-18.4668 -4.65422,-2.15957 -12.55212,-2.61551 -162.1582,-2.72656 z"
       style="fill:#00aa00"
       id="path18" /><path
       id="path2-1"
       style="fill:#ffffff;stroke-width:1.45616"
       sodipodi:type="inkscape:offset"
       inkscape:radius="0"
       inkscape:original="M 556.52148 371.08984 C 554.91611 371.06689 552.98186 371.46089 550.66797 372.36719 C 499.45973 423.7859 449.96522 476.90052 400.39062 529.89258 C 394.28773 538.74082 371.80873 552.67826 386.62305 562.59766 C 410.68374 565.62198 435.12325 562.90055 459.30273 564.55859 C 449.96125 595.91388 440.09518 627.11036 430.66602 658.43945 C 429.04047 670.48871 417.61116 686.1283 426.82227 696.35547 C 429.83322 698.41026 433.86643 698.11935 436.80859 696.10156 C 488.47392 643.51141 538.51782 589.31758 588.81836 535.41602 C 595.09382 527.40905 614.73604 514.24416 600.01953 505.37891 C 576.01928 503.10974 551.80432 505.16372 527.74219 503.79688 C 538.00701 469.20786 549.01456 434.84158 559.16602 400.21875 C 562.87413 391.84447 567.75912 371.25051 556.52148 371.08984 z "
       d="m 556.52148,371.08984 c -1.60537,-0.0229 -3.53962,0.37105 -5.85351,1.27735 -51.20824,51.41871 -100.70275,104.53333 -150.27735,157.52539 -6.10289,8.84824 -28.58189,22.78568 -13.76757,32.70508 24.06069,3.02432 48.5002,0.30289 72.67968,1.96093 -9.34148,31.35529 -19.20755,62.55177 -28.63671,93.88086 -1.62555,12.04926 -13.05486,27.68885 -3.84375,37.91602 3.01095,2.05479 7.04416,1.76388 9.98632,-0.25391 51.66533,-52.59015 101.70923,-106.78398 152.00977,-160.68554 6.27546,-8.00697 25.91768,-21.17186 11.20117,-30.03711 -24.00025,-2.26917 -48.21521,-0.21519 -72.27734,-1.58203 10.26482,-34.58902 21.27237,-68.9553 31.42383,-103.57813 3.70811,-8.37428 8.5931,-28.96824 -2.64454,-29.12891 z"
       transform="matrix(1.8766494,0,0,1.8766494,-432.63899,-468.50397)" /></g></svg>
