<?xml version="1.0" encoding="UTF-8" standalone="no"?>
<!-- Created with Inkscape (http://www.inkscape.org/) -->

<svg
   shape-rendering="crispEdges"
   width="1080"
   height="1080"
   viewBox="0 0 1080 1080"
   version="1.1"
   id="svg1"
   xml:space="preserve"
   inkscape:version="1.4.3 (0d15f75042, 2025-12-25)"
   sodipodi:docname="battery80c.svg"
   xmlns:inkscape="http://www.inkscape.org/namespaces/inkscape"
   xmlns:sodipodi="http://sodipodi.sourceforge.net/DTD/sodipodi-0.dtd"
   xmlns="http://www.w3.org/2000/svg"
   xmlns:svg="http://www.w3.org/2000/svg"><sodipodi:namedview
     id="namedview1"
     pagecolor="#ffffff"
     bordercolor="#000000"
     borderopacity="0.25"
     inkscape:showpageshadow="2"
     inkscape:pageopacity="0.0"
     inkscape:pagecheckerboard="0"
     inkscape:deskcolor="#d1d1d1"
     inkscape:document-units="px"
     inkscape:zoom="0.74074074"
     inkscape:cx="542.025"
     inkscape:cy="588.6"
     inkscape:window-width="1900"
     inkscape:window-height="1021"
     inkscape:window-x="0"
     inkscape:window-y="0"
     inkscape:window-maximized="1"
     inkscape:current-layer="layer1" /><defs
     id="defs1"><linearGradient
       id="swatch2"
       inkscape:swatch="solid"><stop
         style="stop-color:#000000;stop-opacity:1;"
         offset="0"
         id="stop2" /></linearGradient></defs><g
     inkscape:label="Layer 1"
     inkscape:groupmode="layer"
     id="layer1"><path
       d="m 970.8457,437.95898 c -13.09248,-0.47795 -26.54405,6.56821 -30.51367,21.55469 v 134.20117 c -1.9168,16.12623 0.34424,34.31645 18.39844,40.6211 16.65211,8.15254 32.89568,-3.80009 40.47461,-18.30664 V 461.55078 c -2.53287,-15.11175 -15.26689,-23.11384 -28.35938,-23.5918 z"
       style="fill:#ffffff"
       id="path7" /><path
       d="m 207.14062,297.5957 c -50.3693,1.35128 -95.98735,44.02937 -104.67187,93.20508 -3.787337,87.09191 -1.92687,174.4078 -2.01367,261.58594 -4.742641,56.12601 36.68751,111.62105 92.04687,122.37305 l 5.63867,0.5371 c 61.73519,0.75877 123.47359,1.11287 185.21485,1.24805 1.59037,-4.62241 2.68256,-7.7305 2.8164,-8.72265 a 36.200172,36.200172 0 0 1 1.2129,-5.59375 c 4.63171,-15.38923 9.28728,-30.71706 13.95312,-46.00782 -57.77672,-0.0427 -115.55243,-0.18665 -173.32812,-0.51367 -29.16897,4.98915 -57.70527,-11.1899 -67.00196,-39.56445 V 418.3418 c -5.2694,-29.12243 18.73925,-58.43692 48.07422,-60.74414 90.43542,-1.40729 180.88949,-1.76068 271.34766,-1.69727 18.39858,-19.39227 36.86777,-38.7387 55.43359,-58.01367 h -318.5957 c -3.39064,-0.28758 -6.769,-0.3811 -10.12696,-0.29102 z m 491.11133,0.29102 c -0.26699,0.66108 -0.53807,1.31599 -0.81054,1.96484 -5.56558,18.95413 -11.22469,37.81591 -16.92579,56.61328 28.96979,0.10616 57.93855,0.20693 86.90625,0.28125 4.06457,-0.5456 8.26168,-0.86065 12.50782,-0.92187 29.72297,-0.42852 61.87282,11.58586 68.16992,44.0957 4.15255,69.59842 1.79233,139.62688 2.23828,209.39453 -0.83546,36.11151 7.41026,84.31523 -33.00586,102.88672 -2.41795,1.22651 -4.83595,2.45318 -7.25391,3.67969 -68.15516,-0.0123 -136.31093,0.0984 -204.46679,0.19922 -18.97757,20.18978 -38.01803,40.34357 -57.14844,60.43359 87.13086,-0.1558 174.26322,-0.42255 261.39063,-0.2832 47.25457,-5.51595 86.63879,-45.32265 98.17773,-90.79688 1.72109,-91.20645 1.09422,-182.95003 0.74414,-274.31445 2.20089,-54.26046 -41.88976,-100.85525 -92.81055,-113.23242 z"
       style="fill:#ffffff"
       id="path2" /><path
       d="m 245.04297,399.6875 c -15.73145,-0.45474 -31.5446,4.22728 -39.75586,19.57812 -7.46982,46.66154 -2.15053,94.66861 -3.79297,141.85938 6.09133,35.83764 -15.59571,86.72343 21.32031,109.34961 2.45659,1.14397 4.91255,2.28767 7.36914,3.43164 h 31.27539 60.89454 60.89257 31.04102 c 4.30054,-14.03524 8.59599,-28.05781 12.87695,-42.08594 -28.84704,0.29972 -59.57301,1.00484 -92.28906,-3.10742 a 36.200172,36.200172 0 0 1 -15.62109,-5.83594 c -13.72302,-9.18868 -26.08684,-28.76986 -25.33204,-46.70703 0.75481,-17.93717 8.68407,-28.78292 15.0879,-37.02344 12.80765,-16.48104 27.44533,-29.75924 26.42187,-28.27539 a 36.200172,36.200172 0 0 1 3.36133,-4.17773 c 33.19961,-35.48824 66.41797,-71.04502 99.80664,-106.51563 -18.45077,0.024 -36.90292,0.0478 -55.35352,0.0664 -20.29812,0.0206 -40.59479,0.0349 -60.89257,0.0312 -20.29825,-0.004 -40.59687,-0.0257 -60.89454,-0.0723 -3.23374,-0.007 -6.46744,-0.0147 -9.70117,-0.0234 -2.2216,-0.25851 -4.46749,-0.42723 -6.71484,-0.49219 z m 422.0625,0.72852 c -4.77129,15.57687 -9.5427,31.12281 -14.28125,46.65625 11.40035,-0.0632 23.02784,-0.18413 34.89258,-0.11915 v -46.41015 c -6.87065,-0.0467 -13.74048,-0.0887 -20.61133,-0.12695 z m 20.61133,227.85156 c -14.17881,15.21371 -28.36911,30.43062 -42.58399,45.63867 h 42.58399 z"
       style="fill:#008000"
       id="path1" /><g
       inkscape:label="Layer 1"
       id="layer1-3"
       transform="translate(46.473879,5.5048295)"
       style="fill:#ffffff"><path
         id="path2-1"
         style="fill:#ffffff;stroke-width:1.45616"
         sodipodi:type="inkscape:offset"
         inkscape:radius="0"
         inkscape:original="M 556.52148 371.08984 C 554.91611 371.06689 552.98186 371.46089 550.66797 372.36719 C 499.45973 423.7859 449.96523 476.90052 400.39062 529.89258 C 394.28773 538.74082 371.80873 552.67826 386.62305 562.59766 C 410.68374 565.62198 435.12325 562.90055 459.30273 564.55859 C 449.96125 595.91388 440.09518 627.11036 430.66602 658.43945 C 429.04047 670.48871 417.61116 686.1283 426.82227 696.35547 C 429.83322 698.41026 433.86643 698.11935 436.80859 696.10156 C 488.47392 643.51141 538.51782 589.31758 588.81836 535.41602 C 595.09382 527.40905 614.73604 514.24416 600.01953 505.37891 C 576.01928 503.10974 551.80432 505.16372 527.74219 503.79688 C 538.00701 469.20785 549.01456 434.84158 559.16602 400.21875 C 562.87413 391.84447 567.75912 371.25051 556.52148 371.08984 z "
         d="m 556.52148,371.08984 c -1.60537,-0.0229 -3.53962,0.37105 -5.85351,1.27735 -51.20824,51.41871 -100.70274,104.53333 -150.27735,157.52539 -6.10289,8.84824 -28.58189,22.78568 -13.76757,32.70508 24.06069,3.02432 48.5002,0.30289 72.67968,1.96093 -9.34148,31.35529 -19.20755,62.55177 -28.63671,93.88086 -1.62555,12.04926 -13.05486,27.68885 -3.84375,37.91602 3.01095,2.05479 7.04416,1.76388 9.98632,-0.25391 51.66533,-52.59015 101.70923,-106.78398 152.00977,-160.68554 6.27546,-8.00697 25.91768,-21.17186 11.20117,-30.03711 -24.00025,-2.26917 -48.21521,-0.21519 -72.27734,-1.58203 10.26482,-34.58903 21.27237,-68.9553 31.42383,-103.57813 3.70811,-8.37428 8.5931,-28.96824 -2.64454,-29.12891 z"
         transform="matrix(1.8766494,0,0,1.8766494,-432.63899,-468.50397)" /></g></g></svg>
