<?xml version="1.0" encoding="UTF-8" standalone="no"?>
<!-- Created with Inkscape (http://www.inkscape.org/) -->

<svg
   width="1080"
   height="1080"
   viewBox="0 0 1080 1080"
   version="1.1"
   id="svg1"
   xml:space="preserve"
   inkscape:version="1.4.3 (0d15f75042, 2025-12-25)"
   sodipodi:docname="battery90c.svg"
   xmlns:inkscape="http://www.inkscape.org/namespaces/inkscape"
   xmlns:sodipodi="http://sodipodi.sourceforge.net/DTD/sodipodi-0.dtd"
   xmlns="http://www.w3.org/2000/svg"
   xmlns:svg="http://www.w3.org/2000/svg"><sodipodi:namedview
     id="namedview1"
     pagecolor="#ffffff"
     bordercolor="#000000"
     borderopacity="0.25"
     inkscape:showpageshadow="2"
     inkscape:pageopacity="0.0"
     inkscape:pagecheckerboard="0"
     inkscape:deskcolor="#d1d1d1"
     inkscape:document-units="px"
     inkscape:zoom="0.5237828"
     inkscape:cx="523.1176"
     inkscape:cy="574.66568"
     inkscape:window-width="1900"
     inkscape:window-height="1021"
     inkscape:window-x="0"
     inkscape:window-y="0"
     inkscape:window-maximized="1"
     inkscape:current-layer="layer1" /><defs
     id="defs1"><linearGradient
       id="swatch2"
       inkscape:swatch="solid"><stop
         style="stop-color:#000000;stop-opacity:1;"
         offset="0"
         id="stop2" /></linearGradient></defs><g
     inkscape:label="Layer 1"
     inkscape:groupmode="layer"
     id="layer1"><path
       d="m 970.8457,437.95898 c -13.09248,-0.47795 -26.54405,6.56821 -30.51367,21.55469 v 134.20117 c -1.9168,16.12623 0.34424,34.31645 18.39844,40.6211 16.65211,8.15254 32.89568,-3.80009 40.47461,-18.30664 V 461.55078 c -2.53287,-15.11175 -15.26689,-23.11384 -28.35938,-23.5918 z"
       style="fill:#ffffff"
       id="path11" /><path
       d="m 383.35547,776.54492 c 1.59037,-4.62241 2.68256,-7.7305 2.8164,-8.72265 a 36.200172,36.200172 0 0 1 1.2129,-5.59375 c 4.63171,-15.38923 9.28728,-30.71706 13.95312,-46.00782 -57.77672,-0.0427 -115.55243,-0.18665 -173.32812,-0.51367 -29.16897,4.98915 -57.70527,-11.1899 -67.00196,-39.56445 V 418.3418 c -5.2694,-29.12243 18.73925,-58.43692 48.07422,-60.74414 90.43542,-1.40729 180.88949,-1.76068 271.34766,-1.69727 18.39858,-19.39227 36.86777,-38.7387 55.43359,-58.01367 h -318.5957 c -3.39064,-0.28758 -6.769,-0.3811 -10.12696,-0.29102 -50.3693,1.35128 -95.98735,44.02937 -104.67187,93.20508 -3.787337,87.09191 -1.92687,174.4078 -2.01367,261.58594 -4.742641,56.12601 36.68751,111.62105 92.04687,122.37305 l 5.63867,0.5371 c 61.73519,0.75877 123.47359,1.11287 185.21485,1.24805 z"
       style="fill:#ffffff"
       id="path13" /><path
       d="m 698.25195,297.88672 c -0.26699,0.66108 -0.53807,1.31599 -0.81054,1.96484 -5.56558,18.95413 -11.22469,37.81591 -16.92579,56.61328 28.96979,0.10616 57.93855,0.20693 86.90625,0.28125 4.06457,-0.5456 8.26168,-0.86065 12.50782,-0.92187 29.72297,-0.42852 61.87282,11.58586 68.16992,44.0957 4.15255,69.59842 1.79233,139.62688 2.23828,209.39453 -0.83546,36.11151 7.41026,84.31523 -33.00586,102.88672 -2.41795,1.22651 -4.83595,2.45318 -7.25391,3.67969 -68.15516,-0.0123 -136.31093,0.0984 -204.46679,0.19922 -18.97757,20.18978 -38.01803,40.34357 -57.14844,60.43359 87.13086,-0.1558 174.26322,-0.42255 261.39063,-0.2832 47.25457,-5.51595 86.63879,-45.32265 98.17773,-90.79688 1.72109,-91.20645 1.09422,-182.95003 0.74414,-274.31445 2.20089,-54.26046 -41.88976,-100.85525 -92.81055,-113.23242 z"
       style="fill:#ffffff"
       id="path10" /><path
       d="m 414.28711,673.90625 c 4.30054,-14.03524 8.59599,-28.05781 12.87695,-42.08594 -28.84704,0.29972 -59.57301,1.00484 -92.28906,-3.10742 a 36.200172,36.200172 0 0 1 -15.62109,-5.83594 c -13.72302,-9.18868 -26.08684,-28.76986 -25.33204,-46.70703 0.75481,-17.93717 8.68407,-28.78292 15.0879,-37.02344 12.80765,-16.48104 27.44533,-29.75924 26.42187,-28.27539 a 36.200172,36.200172 0 0 1 3.36133,-4.17773 c 33.19961,-35.48824 66.41797,-71.04502 99.80664,-106.51563 -18.45077,0.024 -36.90292,0.0478 -55.35352,0.0664 -20.29812,0.0206 -40.59479,0.0349 -60.89257,0.0312 -20.29825,-0.004 -40.59687,-0.0257 -60.89454,-0.0723 -3.23374,-0.007 -6.46744,-0.0147 -9.70117,-0.0234 -2.2216,-0.25851 -4.46749,-0.42723 -6.71484,-0.49219 -15.73145,-0.45474 -31.5446,4.22728 -39.75586,19.57812 -7.46982,46.66154 -2.15053,94.66861 -3.79297,141.85938 6.09133,35.83764 -15.59571,86.72343 21.32031,109.34961 2.45659,1.14397 4.91255,2.28767 7.36914,3.43164 h 31.27539 60.89454 60.89257 z"
       style="fill:#008000"
       id="path12" /><path
       d="m 667.10547,400.41602 c -4.77129,15.57687 -9.5427,31.12281 -14.28125,46.65625 28.65952,-0.15876 58.75407,-0.68579 90.44531,2.31054 a 36.200172,36.200172 0 0 1 5.3418,0.91211 v -49.21094 c -20.2974,-0.22565 -40.59603,-0.40303 -60.89453,-0.54101 -6.87065,-0.0467 -13.74048,-0.0887 -20.61133,-0.12695 z"
       style="fill:#008000"
       id="path9" /><path
       d="m 748.61133,562.92187 c -0.74467,0.67894 -1.19351,1.08781 -1.2793,1.19727 a 36.200172,36.200172 0 0 1 -2.02734,2.36719 c -33.36206,35.75045 -66.70026,71.6097 -100.17188,107.41992 h 42.58399 60.89453 z"
       style="fill:#008000"
       id="path8" /><path
       d="m 658.23047,233.40625 c -3.01272,-0.0431 -6.64202,0.69568 -10.98438,2.39648 -20.47674,20.56091 -40.80811,41.2671 -61.02539,62.08399 -18.72028,19.27549 -37.34293,38.64744 -55.89453,58.08789 -14.00799,14.67915 -27.97637,29.39755 -41.91406,44.14453 -41.2246,43.6183 -82.18864,87.48373 -123.18359,131.30469 -11.45299,16.60504 -53.63918,42.75976 -25.8379,61.375 45.15348,5.67559 91.01813,0.56813 136.39454,3.67969 -7.70163,25.85101 -15.59284,51.64539 -23.52149,77.42773 -4.33931,14.11057 -8.69094,28.21858 -13.02734,42.33008 -5.7756,18.79489 -11.52473,37.59585 -17.19141,56.42383 -0.17444,1.293 -0.40929,2.60945 -0.69336,3.94336 -4.68379,21.99364 -22.81906,49.11755 -6.52148,67.21289 5.6505,3.85612 13.22078,3.31012 18.74219,-0.47657 21.72404,-22.1129 43.29378,-44.3769 64.75195,-66.75195 19.24393,-20.06619 38.39771,-40.22152 57.48828,-60.4375 13.27275,-14.05519 26.51622,-28.1402 39.73828,-42.24414 41.19945,-43.94735 82.19781,-88.08421 123.28906,-132.11719 7.4393,-9.49193 24.88884,-22.84674 29.77149,-35.58984 v -12.08399 c -1.46417,-3.06118 -4.25174,-5.98555 -8.75,-8.69531 -45.04006,-4.25843 -90.48249,-0.40367 -135.63867,-2.96875 8.14746,-27.45425 16.54375,-54.83428 24.96289,-82.20703 4.50236,-14.63833 9.01177,-29.27503 13.49218,-43.91992 5.9524,-19.45627 11.85404,-38.92687 17.625,-58.4375 0.96744,-3.27072 1.93097,-6.54336 2.89063,-9.81641 6.95882,-15.71559 16.12622,-54.36254 -4.96289,-54.66406 z"
       style="fill:#ffffff;stroke-width:1.45616"
       id="path6" /></g></svg>
