<?xml version="1.0" encoding="UTF-8" standalone="no"?>
<!-- Created with Inkscape (http://www.inkscape.org/) -->

<svg
   width="1080"
   height="1080"
   viewBox="0 0 1080 1080"
   version="1.1"
   id="svg1"
   xml:space="preserve"
   inkscape:version="1.4.3 (0d15f75042, 2025-12-25)"
   sodipodi:docname="battery20c.svg"
   xmlns:inkscape="http://www.inkscape.org/namespaces/inkscape"
   xmlns:sodipodi="http://sodipodi.sourceforge.net/DTD/sodipodi-0.dtd"
   xmlns="http://www.w3.org/2000/svg"
   xmlns:svg="http://www.w3.org/2000/svg"><sodipodi:namedview
     id="namedview1"
     pagecolor="#ffffff"
     bordercolor="#000000"
     borderopacity="0.25"
     inkscape:showpageshadow="2"
     inkscape:pageopacity="0.0"
     inkscape:pagecheckerboard="0"
     inkscape:deskcolor="#d1d1d1"
     inkscape:document-units="px"
     inkscape:zoom="0.5237828"
     inkscape:cx="524.07219"
     inkscape:cy="574.66568"
     inkscape:window-width="1900"
     inkscape:window-height="1021"
     inkscape:window-x="0"
     inkscape:window-y="0"
     inkscape:window-maximized="1"
     inkscape:current-layer="layer1" /><defs
     id="defs1"><linearGradient
       id="swatch2"
       inkscape:swatch="solid"><stop
         style="stop-color:#000000;stop-opacity:1;"
         offset="0"
         id="stop2" /></linearGradient></defs><g
     inkscape:label="Layer 1"
     inkscape:groupmode="layer"
     id="layer1"><path
       d="m 970.8457,437.95898 c -13.09248,-0.47795 -26.54405,6.56821 -30.51367,21.55469 v 134.20117 c -1.9168,16.12623 0.34424,34.31645 18.39844,40.6211 16.65211,8.15254 32.89568,-3.80009 40.47461,-18.30664 V 461.55078 c -2.53287,-15.11175 -15.26689,-23.11384 -28.35938,-23.5918 z"
       style="fill:#ffffff"
       id="path4" /><path
       d="m 207.14062,297.5957 c -50.3693,1.35128 -95.98735,44.02937 -104.67187,93.20508 -3.787337,87.09191 -1.92687,174.4078 -2.01367,261.58594 -4.742641,56.12601 36.68751,111.62105 92.04687,122.37305 l 5.63867,0.5371 c 61.73519,0.75877 123.47359,1.11287 185.21485,1.24805 1.59037,-4.62241 2.68256,-7.7305 2.8164,-8.72265 a 36.200172,36.200172 0 0 1 1.2129,-5.59375 c 4.63171,-15.38923 9.28728,-30.71706 13.95312,-46.00782 -57.77672,-0.0427 -115.55243,-0.18665 -173.32812,-0.51367 -29.16897,4.98915 -57.70527,-11.1899 -67.00196,-39.56445 V 418.3418 c -5.2694,-29.12243 18.73925,-58.43692 48.07422,-60.74414 90.43542,-1.40729 180.88949,-1.76068 271.34766,-1.69727 18.39858,-19.39227 36.86777,-38.7387 55.43359,-58.01367 h -318.5957 c -3.39064,-0.28758 -6.769,-0.3811 -10.12696,-0.29102 z m 491.11133,0.29102 c -0.26699,0.66108 -0.53807,1.31599 -0.81054,1.96484 -5.56558,18.95413 -11.22469,37.81591 -16.92579,56.61328 28.96979,0.10616 57.93855,0.20693 86.90625,0.28125 4.06457,-0.5456 8.26168,-0.86065 12.50782,-0.92187 29.72297,-0.42852 61.87282,11.58586 68.16992,44.0957 4.15255,69.59842 1.79233,139.62688 2.23828,209.39453 -0.83546,36.11151 7.41026,84.31523 -33.00586,102.88672 -2.41795,1.22651 -4.83595,2.45318 -7.25391,3.67969 -68.15516,-0.0123 -136.31093,0.0984 -204.46679,0.19922 -18.97757,20.18978 -38.01803,40.34357 -57.14844,60.43359 87.13086,-0.1558 174.26322,-0.42255 261.39063,-0.2832 47.25457,-5.51595 86.63879,-45.32265 98.17773,-90.79688 1.72109,-91.20645 1.09422,-182.95003 0.74414,-274.31445 2.20089,-54.26046 -41.88976,-100.85525 -92.81055,-113.23242 z"
       style="fill:#ffffff"
       id="path2" /><path
       d="m 322.35352,624.73437 a 36.200172,36.200172 0 0 1 -3.09961,-1.85742 c -13.72302,-9.18868 -26.08684,-28.76986 -25.33204,-46.70703 0.75481,-17.93717 8.68407,-28.78292 15.0879,-37.02344 4.47324,-5.75622 9.169,-11.12133 13.34375,-15.60351 V 400.27539 c -20.29825,-0.004 -40.59687,-0.0257 -60.89454,-0.0723 -3.23374,-0.007 -6.46744,-0.0147 -9.70117,-0.0234 -2.2216,-0.25851 -4.46749,-0.42723 -6.71484,-0.49219 -15.73145,-0.45474 -31.5446,4.22728 -39.75586,19.57812 -7.46982,46.66154 -2.15053,94.66861 -3.79297,141.85938 6.09133,35.83764 -15.59571,86.72343 21.32031,109.34961 2.45659,1.14397 4.91255,2.28767 7.36914,3.43164 h 31.27539 60.89454 z"
       style="fill:#008000"
       id="path3" /><path
       d="m 658.23047,233.40625 c -3.01272,-0.0431 -6.64202,0.69568 -10.98438,2.39648 -20.47674,20.56091 -40.80811,41.2671 -61.02539,62.08399 -18.72028,19.27549 -37.34293,38.64744 -55.89453,58.08789 -55.44053,58.09684 -110.24265,116.81276 -165.09765,175.44922 -11.45299,16.60504 -53.63918,42.75976 -25.8379,61.375 45.15348,5.67559 91.01813,0.56813 136.39454,3.67969 -11.9167,39.99916 -24.2891,79.86228 -36.54883,119.75781 -5.7756,18.79489 -11.52473,37.59585 -17.19141,56.42383 -0.17444,1.293 -0.40929,2.60945 -0.69336,3.94336 -4.68379,21.99364 -22.81906,49.11755 -6.52148,67.21289 5.6505,3.85612 13.22078,3.31012 18.74219,-0.47657 21.72404,-22.1129 43.29378,-44.3769 64.75195,-66.75195 19.24393,-20.06619 38.39771,-40.22152 57.48828,-60.4375 54.63016,-57.85065 108.74876,-116.19693 163.02734,-174.36133 11.77684,-15.02627 48.63922,-39.73217 21.02149,-56.36914 -45.04006,-4.25843 -90.48249,-0.40367 -135.63867,-2.96875 12.50454,-42.13617 25.59657,-84.09704 38.45507,-126.12695 5.9524,-19.45627 11.85404,-38.92687 17.625,-58.4375 0.96744,-3.27072 1.93097,-6.54336 2.89063,-9.81641 6.95882,-15.71559 16.12622,-54.36254 -4.96289,-54.66406 z"
       style="fill:#ffffff;stroke-width:1.45616"
       id="path1" /></g></svg>
