<?xml version="1.0" encoding="UTF-8" standalone="no"?>
<!-- Created with Inkscape (http://www.inkscape.org/) -->

<svg
   width="1080"
   height="1080"
   viewBox="0 0 1080 1080"
   version="1.1"
   id="svg1"
   xml:space="preserve"
   inkscape:version="1.4.3 (0d15f75042, 2025-12-25)"
   sodipodi:docname="battery.svg"
   xmlns:inkscape="http://www.inkscape.org/namespaces/inkscape"
   xmlns:sodipodi="http://sodipodi.sourceforge.net/DTD/sodipodi-0.dtd"
   xmlns="http://www.w3.org/2000/svg"
   xmlns:svg="http://www.w3.org/2000/svg"><sodipodi:namedview
     id="namedview1"
     pagecolor="#ffffff"
     bordercolor="#000000"
     borderopacity="0.25"
     inkscape:showpageshadow="2"
     inkscape:pageopacity="0.0"
     inkscape:pagecheckerboard="0"
     inkscape:deskcolor="#d1d1d1"
     inkscape:document-units="px"
     inkscape:zoom="0.5237828"
     inkscape:cx="436.24953"
     inkscape:cy="574.66568"
     inkscape:window-width="1920"
     inkscape:window-height="1011"
     inkscape:window-x="0"
     inkscape:window-y="0"
     inkscape:window-maximized="1"
     inkscape:current-layer="layer1" /><defs
     id="defs1"><linearGradient
       id="swatch2"
       inkscape:swatch="solid"><stop
         style="stop-color:#000000;stop-opacity:1;"
         offset="0"
         id="stop2" /></linearGradient></defs><g
     inkscape:label="Layer 1"
     inkscape:groupmode="layer"
     id="layer1"><path
       style="fill:#ffffff"
       d="m 192.50145,774.76036 c -46.40831,-9.30544 -84.26229,-49.74461 -91.0668,-97.28609 -1.17217,-8.18968 -1.524691,-51.94403 -1.19062,-147.77696 0.51475,-147.66462 0.006,-138.08217 8.54179,-160.89603 6.13284,-16.39151 25.75908,-41.15304 40.6371,-51.26998 8.098,-5.50658 23.56174,-12.77477 34.46223,-16.19775 l 10.97519,-3.44645 h 310.55209 310.5521 l 13.46401,4.70499 c 18.67772,6.52693 32.98044,15.39459 46.06436,28.55982 17.02529,17.13109 28.73146,39.36626 32.46587,61.66699 1.09937,6.56505 1.46362,53.66903 1.16092,150.12471 l -0.4411,140.55794 -3.45349,10.30268 c -13.08795,39.04489 -39.88939,65.84803 -78.95789,78.96291 l -10.30268,3.4585 -306.87257,0.24164 c -249.51068,0.19648 -308.68908,-0.12259 -316.59051,-1.70692 z m 624.8297,-62.5585 c 17.19664,-8.723 29.22609,-25.05055 31.85827,-43.24117 1.90081,-13.13619 1.71043,-252.51991 -0.21023,-264.35844 -2.13242,-13.14372 -5.81106,-20.73234 -14.50769,-29.92774 -8.78058,-9.28417 -19.77905,-15.22691 -31.83475,-17.20108 -5.46605,-0.89509 -117.55597,-1.42636 -298.69613,-1.41572 -248.13856,0.0146 -291.40478,0.32594 -300.05849,2.15936 -17.14671,3.63279 -31.29137,15.05211 -38.99498,31.48158 l -3.87846,8.27159 V 537.05637 676.1425 l 3.99761,8.13972 c 7.5471,15.36703 18.92542,25.49012 33.95456,30.2088 5.07241,1.59258 61.29575,1.89656 308.65929,1.66883 l 302.45714,-0.27846 z M 222.81403,670.4741 c -8.02848,-3.73868 -16.12013,-11.93891 -19.30694,-19.56603 -1.65456,-3.95992 -2.0236,-24.54612 -2.0236,-112.88348 0,-119.25193 -0.2451,-115.92186 9.26142,-125.83013 2.59643,-2.70616 7.84476,-6.51694 11.66296,-8.4684 l 6.94217,-3.5481 275.64551,0.0323 c 265.3841,0.0311 275.86468,0.13402 281.53276,2.76402 7.28275,3.37922 14.678,10.61131 18.88367,18.46704 l 3.1935,5.96512 v 108.914 c 0,107.61273 -0.037,108.99314 -3.09534,115.53716 -4.01607,8.59326 -9.85133,14.3095 -18.98183,18.59464 l -7.35905,3.45376 H 504.67653 230.1838 Z m 735.91616,-36.13881 c -7.7547,-3.84828 -9.9093,-5.70364 -14.52908,-12.51126 l -3.86856,-5.70065 v -78.305 -78.305 l 3.42457,-6.48669 c 1.88351,-3.56768 6.24561,-8.47363 9.69355,-10.90212 5.48436,-3.8628 7.52674,-4.41544 16.3181,-4.41544 8.79136,0 10.83373,0.55264 16.31809,4.41544 3.44794,2.42849 7.81004,7.33444 9.69355,10.90212 l 3.42457,6.48669 v 78.25805 78.25806 l -4.48503,6.77117 c -8.32722,12.5718 -23.86491,17.55159 -35.98976,11.53463 z"
       id="path1" /></g></svg>
