<?xml version="1.0" encoding="UTF-8" standalone="no"?>
<!-- Created with Inkscape (http://www.inkscape.org/) -->

<svg
   width="1080"
   height="1080"
   viewBox="0 0 1080 1080"
   version="1.1"
   id="svg1"
   xml:space="preserve"
   inkscape:version="1.4.3 (0d15f75042, 2025-12-25)"
   sodipodi:docname="wifim.svg"
   xmlns:inkscape="http://www.inkscape.org/namespaces/inkscape"
   xmlns:sodipodi="http://sodipodi.sourceforge.net/DTD/sodipodi-0.dtd"
   xmlns="http://www.w3.org/2000/svg"
   xmlns:svg="http://www.w3.org/2000/svg"><sodipodi:namedview
     id="namedview1"
     pagecolor="#ffffff"
     bordercolor="#000000"
     borderopacity="0.25"
     inkscape:showpageshadow="2"
     inkscape:pageopacity="0.0"
     inkscape:pagecheckerboard="0"
     inkscape:deskcolor="#d1d1d1"
     inkscape:document-units="px"
     inkscape:zoom="0.5237828"
     inkscape:cx="403.79333"
     inkscape:cy="540.30029"
     inkscape:window-width="1920"
     inkscape:window-height="1011"
     inkscape:window-x="0"
     inkscape:window-y="0"
     inkscape:window-maximized="1"
     inkscape:current-layer="layer1" /><defs
     id="defs1"><linearGradient
       id="swatch2"
       inkscape:swatch="solid"><stop
         style="stop-color:#000000;stop-opacity:1;"
         offset="0"
         id="stop2" /></linearGradient></defs><g
     inkscape:label="Layer 1"
     inkscape:groupmode="layer"
     id="layer1"><path
       d="M 1009.7492,224.56552 V 66.802677 A 940.02785,940.02785 0 0 0 70.250657,1006.832 a 940.02785,940.02785 0 0 0 0.02081,6.2657 l 140.918763,0.017 a 790.69786,790.69786 0 0 1 790.69677,-788.58611 790.69786,790.69786 0 0 1 7.8623,0.0374 z"
       style="fill:#999999;stroke:#000000;stroke-width:0"
       id="path8" /><path
       d="M 1009.7492,537.10969 V 388.84703 a 626.42664,626.42664 0 0 0 -7.8622,-0.0498 626.42664,626.42664 0 0 0 -626.42362,624.33367 l 148.24608,0.017 a 478.18185,478.18185 0 0 1 478.17754,-476.1042 478.18185,478.18185 0 0 1 7.8622,0.0662 z"
       style="fill:#ffffff;stroke:#000000;stroke-width:0"
       id="path9" /><path
       d="M 1009.7492,1013.1973 V 725.45891 a 289.87089,289.87089 0 0 0 -7.8622,-0.10362 289.87089,289.87089 0 0 0 -289.86565,287.80881 z"
       style="fill:#ffffff;stroke:#000000;stroke-width:0"
       id="path10" /></g></svg>
