<?xml version="1.0" encoding="UTF-8" standalone="no"?>
<!-- Created with Inkscape (http://www.inkscape.org/) -->

<svg
   width="1080"
   height="1080"
   viewBox="0 0 1080 1080"
   version="1.1"
   id="svg1"
   xml:space="preserve"
   inkscape:version="1.4.3 (0d15f75042, 2025-12-25)"
   sodipodi:docname="bluetooth.svg"
   xmlns:inkscape="http://www.inkscape.org/namespaces/inkscape"
   xmlns:sodipodi="http://sodipodi.sourceforge.net/DTD/sodipodi-0.dtd"
   xmlns="http://www.w3.org/2000/svg"
   xmlns:svg="http://www.w3.org/2000/svg"><sodipodi:namedview
     id="namedview1"
     pagecolor="#ffffff"
     bordercolor="#000000"
     borderopacity="0.25"
     inkscape:showpageshadow="2"
     inkscape:pageopacity="0.0"
     inkscape:pagecheckerboard="0"
     inkscape:deskcolor="#d1d1d1"
     inkscape:document-units="px"
     inkscape:zoom="0.5237828"
     inkscape:cx="402.83873"
     inkscape:cy="540.30029"
     inkscape:window-width="1920"
     inkscape:window-height="1011"
     inkscape:window-x="0"
     inkscape:window-y="0"
     inkscape:window-maximized="1"
     inkscape:current-layer="layer1" /><defs
     id="defs1"><linearGradient
       id="swatch2"
       inkscape:swatch="solid"><stop
         style="stop-color:#000000;stop-opacity:1;"
         offset="0"
         id="stop2" /></linearGradient></defs><g
     inkscape:label="Layer 1"
     inkscape:groupmode="layer"
     id="layer1"><path
       style="fill:#ffffff"
       d="M 528.34788,1038.5802 C 515.23925,1035.4005 501.18725,1024.388 495.70745,1013 489.67752,1000.4687 490,1010.6812 490,832.25603 V 668.93225 l -49.25,46.70278 c -27.0875,25.68652 -54.2,51.47216 -60.25,57.30141 -11.70263,11.27563 -44.00481,41.90916 -54,51.21048 -7.29942,6.7927 -13.03281,10.45602 -20.25151,12.93962 -25.83735,8.88935 -54.43167,-4.96888 -63.27718,-30.66726 -4.367,-12.68722 -3.58074,-25.94878 2.27782,-38.41927 3.686,-7.84599 9.27486,-13.55258 62.75087,-64.07264 20.625,-19.48494 42.225,-39.95933 48,-45.49867 13.60658,-13.05132 64.32235,-61.25254 97.75,-92.90342 14.4375,-13.67011 26.25,-25.15648 26.25,-25.52527 0,-0.36879 -11.8125,-11.85516 -26.25,-25.52527 -33.29418,-31.52451 -84.08581,-79.79721 -97.75114,-92.90332 -5.77563,-5.53928 -27.37563,-26.01781 -48,-45.50786 -49.87518,-47.13208 -59.18894,-56.49236 -62.25266,-62.56355 -4.00923,-7.94488 -5.74718,-15.19798 -5.73433,-23.9315 0.0213,-14.45829 4.40847,-25.17402 14.39554,-35.16109 10.64024,-10.64025 21.92838,-14.90948 37.47965,-14.175 10.45434,0.49375 17.75205,2.71252 25.05605,7.61794 3.5097,2.35715 69.86759,64.87059 151.73831,142.94736 l 21.28404,20.29772 0.26727,-165.79772 0.26727,-165.797708 2.14665,-5.606151 c 5.72661,-14.955541 15.54874,-24.945549 30.09299,-30.607365 5.7333,-2.231868 8.35556,-2.637364 17.26036,-2.669076 16.23758,-0.05782 24.3617,3.648967 40.54562,18.49973 4.42509,4.060574 61.23155,55.22926 126.23656,113.70819 65.00502,58.47894 119.80114,108.20394 121.76916,110.5 13.78396,16.08156 14.96828,41.69336 2.75154,59.50378 -2.06308,3.0077 -24.16123,24.81133 -50.72915,50.05302 C 754.68318,417.48029 709.425,460.47867 680,488.43411 c -29.425,27.95544 -53.5,51.15915 -53.5,51.56381 0,0.40466 19.36095,19.13318 43.02433,41.61892 23.66339,22.48574 68.91689,65.47827 100.56333,95.53894 33.32503,31.65515 59.08167,56.90477 61.20481,60 13.45924,19.62161 10.94568,45.33223 -6.15073,62.91422 C 821.48878,803.82671 768.1,852.20288 706.5,907.5726 c -61.6,55.36972 -115.6,103.9319 -120,107.916 -14.62271,13.2406 -18.9491,16.6095 -25,19.4674 -10.55866,4.9869 -22.26035,6.2661 -33.15212,3.6242 z M 617.5,853.0035 c 13.75,-12.41652 41.425,-37.38037 61.5,-55.4752 20.075,-18.09484 36.5,-33.25507 36.5,-33.68941 0,-0.43434 -6.77799,-7.21328 -15.06219,-15.0643 C 652.19322,703.05273 608.24079,661.28894 599.75,653.10061 L 590,643.69792 v 116.71006 c 0,93.11179 0.25274,116.55447 1.25,115.94055 0.6875,-0.42324 12.5,-10.9285 26.25,-23.34503 z m 11,-453.52589 c 11.55,-10.93909 29.325,-27.80782 39.5,-37.48607 10.175,-9.67825 25.025,-23.78421 33,-31.34657 7.975,-7.56236 14.5,-14.0926 14.5,-14.51165 0,-0.41904 -16.425,-15.56676 -36.5,-33.6616 -20.075,-18.09483 -47.75,-43.05868 -61.5,-55.4752 -13.75,-12.41653 -25.5625,-22.92179 -26.25,-23.34503 -0.99726,-0.61392 -1.25,22.84438 -1.25,116.01865 v 116.78817 l 8.75,-8.54572 c 4.8125,-4.70015 18.2,-17.49589 29.75,-28.43498 z"
       id="path1" /></g></svg>
