<?xml version="1.0" encoding="UTF-8" standalone="no"?>
<!-- Created with Inkscape (http://www.inkscape.org/) -->

<svg
   width="1080"
   height="1080"
   viewBox="0 0 1080 1080"
   version="1.1"
   id="svg1"
   xml:space="preserve"
   inkscape:version="1.4.3 (0d15f75042, 2025-12-25)"
   sodipodi:docname="bluetooth2.svg"
   xmlns:inkscape="http://www.inkscape.org/namespaces/inkscape"
   xmlns:sodipodi="http://sodipodi.sourceforge.net/DTD/sodipodi-0.dtd"
   xmlns="http://www.w3.org/2000/svg"
   xmlns:svg="http://www.w3.org/2000/svg"><sodipodi:namedview
     id="namedview1"
     pagecolor="#ffffff"
     bordercolor="#000000"
     borderopacity="0.25"
     inkscape:showpageshadow="2"
     inkscape:pageopacity="0.0"
     inkscape:pagecheckerboard="0"
     inkscape:deskcolor="#d1d1d1"
     inkscape:document-units="px"
     inkscape:zoom="0.5237828"
     inkscape:cx="401.88414"
     inkscape:cy="540.30029"
     inkscape:window-width="1900"
     inkscape:window-height="1021"
     inkscape:window-x="0"
     inkscape:window-y="0"
     inkscape:window-maximized="1"
     inkscape:current-layer="layer1" /><defs
     id="defs1"><linearGradient
       id="swatch2"
       inkscape:swatch="solid"><stop
         style="stop-color:#000000;stop-opacity:1;"
         offset="0"
         id="stop2" /></linearGradient></defs><g
     inkscape:label="Layer 1"
     inkscape:groupmode="layer"
     id="layer1"><path
       style="fill:#ffffff;stroke-width:0.615986"
       d="m 532.84803,846.95248 c -8.07474,-1.95865 -16.73062,-8.74225 -20.10609,-15.75709 -3.71436,-7.7191 -3.5157,-1.42835 -3.5157,-111.33591 V 619.25416 l -30.33738,28.76831 c -16.68553,15.82257 -33.38649,31.70619 -37.11321,35.29694 -7.20867,6.94564 -27.10637,25.81547 -33.26328,31.54499 -4.49638,4.1842 -8.02806,6.44074 -12.4747,7.97064 -15.91545,5.47569 -33.52919,-3.0608 -38.97789,-18.89064 -2.69001,-7.81517 -2.2057,-15.98413 1.4031,-23.66577 2.27052,-4.83303 5.7132,-8.34822 38.65373,-39.46793 12.70474,-12.00246 26.01004,-24.61443 29.56734,-28.02656 8.3815,-8.03946 39.62176,-37.7308 60.21275,-57.2273 8.89331,-8.4206 16.16964,-15.49608 16.16964,-15.72324 0,-0.22712 -7.27633,-7.30261 -16.16964,-15.72321 -20.50878,-19.4187 -51.79578,-49.15405 -60.21344,-57.22725 -3.5577,-3.41212 -16.86303,-16.02663 -29.56735,-28.03225 -30.72246,-29.03275 -36.45964,-34.79855 -38.34684,-38.53834 -2.46963,-4.89392 -3.54018,-9.36174 -3.53228,-14.74146 0.0134,-8.90614 2.71555,-15.50689 8.86748,-21.65879 6.55427,-6.55423 13.50759,-9.18403 23.08697,-8.7316 6.43976,0.30407 10.93502,1.67088 15.4342,4.69254 2.16193,1.452 43.0375,39.95942 93.46882,88.05369 l 13.11066,12.50314 0.16472,-102.12921 0.16454,-102.12921 1.32229,-3.45335 c 3.5275,-9.21239 9.57781,-15.36611 18.53689,-18.85373 3.53163,-1.37477 5.14693,-1.62459 10.63215,-1.64411 10.00215,-0.0356 15.00649,2.24771 24.97558,11.3956 2.7258,2.50124 37.71783,34.02052 77.76007,70.04274 40.04224,36.02229 73.79596,66.65221 75.00821,68.06658 8.49074,9.90603 9.22027,25.68255 1.69491,36.65352 -1.27085,1.85273 -14.88299,15.28348 -31.24849,30.83203 -15.94822,15.15214 -43.82668,41.63856 -61.95211,58.85877 -18.12541,17.22017 -32.95529,31.51336 -32.95529,31.76261 0,0.24917 11.92608,11.7858 26.50242,25.63671 14.57636,13.85093 42.45191,40.33376 61.9457,58.85077 20.52778,19.49914 36.39355,35.05256 37.70133,36.95918 8.29074,12.08667 6.74242,27.92408 -3.78876,38.75433 -2.25016,2.31412 -35.13697,32.11318 -73.08173,66.2202 -37.9448,34.10702 -71.20809,64.02069 -73.91844,66.47484 -9.00742,8.15604 -11.67242,10.23125 -15.39967,11.9917 -6.50399,3.07186 -13.7121,3.85983 -20.42125,2.23244 z m 54.9165,-114.31282 c 8.46983,-7.64844 25.51727,-23.02583 37.88323,-34.17199 12.36593,-11.14621 22.4835,-20.4847 22.4835,-20.75226 0,-0.26746 -4.17514,-4.44327 -9.2781,-9.27941 -29.71805,-28.16404 -56.79217,-53.89 -62.02236,-58.93392 l -6.00587,-5.79195 v 71.89193 c 0,57.3556 0.15566,71.79602 0.76998,71.41785 0.42348,-0.26058 7.69982,-6.73184 16.16962,-14.38025 z m 6.77589,-279.366 c 7.11463,-6.73838 18.0638,-17.12928 24.33149,-23.09095 6.26763,-5.96168 15.41507,-14.65075 20.32754,-19.30909 4.91248,-4.65829 8.93181,-8.68085 8.93181,-8.93897 0,-0.25816 -10.11757,-9.58893 -22.4835,-20.73508 -12.36596,-11.14621 -29.4134,-26.52361 -37.88323,-34.17203 -8.4698,-7.64844 -15.74614,-14.11953 -16.16962,-14.38023 -0.61432,-0.37815 -0.76998,14.07185 -0.76998,71.46597 v 71.93998 l 5.38984,-5.26404 c 2.96446,-2.89523 11.21099,-10.77723 18.32565,-17.51556 z"
       id="path1" /></g></svg>
