<?xml version="1.0" encoding="UTF-8" standalone="no"?>
<!-- Uploaded to: SVG Repo, www.svgrepo.com, Generator: SVG Repo Mixer Tools -->

<svg
   fill="#000000"
   width="800px"
   height="800px"
   viewBox="0 0 24 24"
   version="1.1"
   id="svg1"
   sodipodi:docname="brightness.svg"
   inkscape:version="1.4.3 (0d15f75042, 2025-12-25)"
   xmlns:inkscape="http://www.inkscape.org/namespaces/inkscape"
   xmlns:sodipodi="http://sodipodi.sourceforge.net/DTD/sodipodi-0.dtd"
   xmlns="http://www.w3.org/2000/svg"
   xmlns:svg="http://www.w3.org/2000/svg">
  <defs
     id="defs1" />
  <sodipodi:namedview
     id="namedview1"
     pagecolor="#ffffff"
     bordercolor="#000000"
     borderopacity="0.25"
     inkscape:showpageshadow="2"
     inkscape:pageopacity="0.0"
     inkscape:pagecheckerboard="0"
     inkscape:deskcolor="#d1d1d1"
     inkscape:zoom="0.38625"
     inkscape:cx="398.7055"
     inkscape:cy="398.7055"
     inkscape:window-width="1900"
     inkscape:window-height="1021"
     inkscape:window-x="0"
     inkscape:window-y="0"
     inkscape:window-maximized="1"
     inkscape:current-layer="svg1" />
  <path
     d="M12,8a4,4,0,1,1-4,4A4,4,0,0,1,12,8Zm1-3.2V3a1,1,0,0,0-2,0V4.8a1,1,0,1,0,2,0ZM11,19.2V21a1,1,0,0,0,2,0V19.2a1,1,0,0,0-2,0ZM17.091,7.909a1,1,0,0,0,.707-.293l1.273-1.272a1,1,0,1,0-1.414-1.415L16.384,6.2a1,1,0,0,0,.707,1.708ZM6.343,19.071,7.616,17.8A1,1,0,0,0,6.2,16.384L4.929,17.657a1,1,0,1,0,1.414,1.414ZM21,11H19.2a1,1,0,0,0,0,2H21a1,1,0,0,0,0-2ZM2,12a1,1,0,0,0,1,1H4.8a1,1,0,1,0,0-2H3A1,1,0,0,0,2,12Zm14.384,5.8,1.273,1.272a1,1,0,1,0,1.414-1.415L17.8,16.384A1,1,0,0,0,16.384,17.8ZM6.343,4.929A1,1,0,0,0,4.929,6.343L6.2,7.616A1,1,0,0,0,7.616,6.2Z"
     id="path1"
     style="fill:#ffffff" />
</svg>
